<svg width="70" height="63" viewBox="0 0 70 63" fill="none" xmlns="http://www.w3.org/2000/svg">
<path d="M26.1514 1.14896C13.3081 -5.12683 4.15136 15.8327 1.17838 27.0969C-7.14597 53.0449 30.9082 45.2002 43.9893 37.9589C57.0704 30.7176 42.2055 8.99369 26.1514 1.14896Z" fill="#F1F1F1"/>
<path d="M61.1596 35.1319C60.5008 25.8476 45.7408 27.4789 38.4431 29.4551C21.1515 33.1744 37.9587 52.1063 46.2897 57.1399C54.6207 62.1735 61.983 46.7371 61.1596 35.1319Z" fill="#EFE3FF"/>
<g clip-path="url(#clip0_7260_13017)">
<path d="M21.5 47.5H15.5C12.46 47.5 10 45.04 10 42V14C10 10.96 12.46 8.5 15.5 8.5H37.5C40.54 8.5 43 10.96 43 14V20C43 20.82 42.32 21.5 41.5 21.5C40.68 21.5 40 20.82 40 20V14C40 12.62 38.88 11.5 37.5 11.5H15.5C14.12 11.5 13 12.62 13 14V42C13 43.38 14.12 44.5 15.5 44.5H21.5C22.32 44.5 23 45.18 23 46C23 46.82 22.32 47.5 21.5 47.5Z" fill="#323232"/>
<path d="M21.5 47.5H15.5C12.46 47.5 10 45.04 10 42V14C10 10.96 12.46 8.5 15.5 8.5H37.5C40.54 8.5 43 10.96 43 14V20C43 20.82 42.32 21.5 41.5 21.5C40.68 21.5 40 20.82 40 20V14C40 12.62 38.88 11.5 37.5 11.5H15.5C14.12 11.5 13 12.62 13 14V42C13 43.38 14.12 44.5 15.5 44.5H21.5C22.32 44.5 23 45.18 23 46C23 46.82 22.32 47.5 21.5 47.5Z" fill="url(#paint0_linear_7260_13017)"/>
<path d="M31.5 21.5H19.5C18.68 21.5 18 20.82 18 20C18 19.18 18.68 18.5 19.5 18.5H31.5C32.32 18.5 33 19.18 33 20C33 20.82 32.32 21.5 31.5 21.5Z" fill="#323232"/>
<path d="M31.5 21.5H19.5C18.68 21.5 18 20.82 18 20C18 19.18 18.68 18.5 19.5 18.5H31.5C32.32 18.5 33 19.18 33 20C33 20.82 32.32 21.5 31.5 21.5Z" fill="url(#paint1_linear_7260_13017)"/>
<path d="M23.5 29.5H19.5C18.68 29.5 18 28.82 18 28C18 27.18 18.68 26.5 19.5 26.5H23.5C24.32 26.5 25 27.18 25 28C25 28.82 24.32 29.5 23.5 29.5Z" fill="#323232"/>
<path d="M23.5 29.5H19.5C18.68 29.5 18 28.82 18 28C18 27.18 18.68 26.5 19.5 26.5H23.5C24.32 26.5 25 27.18 25 28C25 28.82 24.32 29.5 23.5 29.5Z" fill="url(#paint2_linear_7260_13017)"/>
<path fill-rule="evenodd" clip-rule="evenodd" d="M29.4001 40.98C30.1401 41.72 31.1201 42.14 32.1601 42.14V42.1C33.2001 42.1 34.1801 41.7 34.9001 40.98C35.0201 40.88 35.1201 40.76 35.2201 40.64L35.6772 40.0745L41.0399 45.98C41.1799 46.14 41.3199 46.28 41.4799 46.42C42.2999 47.12 43.3399 47.5 44.4199 47.5H44.4399H44.8399C46.0599 47.4 47.1799 46.82 47.9599 45.88C48.7399 44.94 49.1199 43.74 49.0199 42.52C48.8999 41.3 48.3399 40.18 47.3999 39.4L41.4169 34.3275L42.1801 33.72C43.8801 32.38 44.1401 29.88 42.7801 28.18C42.6801 28.08 42.5001 27.88 42.5001 27.88L40.2801 25.64C39.5401 24.9 38.5601 24.48 37.5201 24.48C36.4801 24.48 35.5001 24.9 34.7401 25.64C34.6547 25.7254 34.5839 25.8108 34.5027 25.9087C34.4888 25.9254 34.4747 25.9425 34.4601 25.96L32.1001 28.88C31.6001 29.5 31.0601 30.06 30.4401 30.54L27.5001 32.88C26.6601 33.54 26.1401 34.48 26.0401 35.52C25.9401 36.56 26.2401 37.6 26.8801 38.4C26.9801 38.52 27.0801 38.64 27.1801 38.74L29.4001 40.98ZM39.0208 36.2408C38.4902 36.6878 38.0075 37.1693 37.5863 37.7121L43.2599 43.96L43.4199 44.12C43.7399 44.4 44.1399 44.52 44.5799 44.5C44.9999 44.46 45.3799 44.26 45.6599 43.94C45.9399 43.62 46.0599 43.2 46.0199 42.78C45.9799 42.36 45.7799 41.98 45.4599 41.7L39.0208 36.2408ZM37.4601 27.5002C37.2268 27.5056 36.9957 27.6044 36.8401 27.76L34.4001 30.78C33.7801 31.56 33.0601 32.26 32.2801 32.9L29.3401 35.24C29.1401 35.4 29.0201 35.62 29.0001 35.86C28.9801 36.1 29.0401 36.36 29.2001 36.54L31.5001 38.86C31.6801 39.04 31.9001 39.12 32.1401 39.12C32.3801 39.12 32.6201 39.02 32.7801 38.86L35.2001 35.86C35.8201 35.08 36.5401 34.36 37.3201 33.74L40.2401 31.4C40.6401 31.08 40.7001 30.48 40.3801 30.08L38.0801 27.76C37.9246 27.6044 37.6934 27.5056 37.4601 27.5002Z" fill="#323232"/>
<path fill-rule="evenodd" clip-rule="evenodd" d="M29.4001 40.98C30.1401 41.72 31.1201 42.14 32.1601 42.14V42.1C33.2001 42.1 34.1801 41.7 34.9001 40.98C35.0201 40.88 35.1201 40.76 35.2201 40.64L35.6772 40.0745L41.0399 45.98C41.1799 46.14 41.3199 46.28 41.4799 46.42C42.2999 47.12 43.3399 47.5 44.4199 47.5H44.4399H44.8399C46.0599 47.4 47.1799 46.82 47.9599 45.88C48.7399 44.94 49.1199 43.74 49.0199 42.52C48.8999 41.3 48.3399 40.18 47.3999 39.4L41.4169 34.3275L42.1801 33.72C43.8801 32.38 44.1401 29.88 42.7801 28.18C42.6801 28.08 42.5001 27.88 42.5001 27.88L40.2801 25.64C39.5401 24.9 38.5601 24.48 37.5201 24.48C36.4801 24.48 35.5001 24.9 34.7401 25.64C34.6547 25.7254 34.5839 25.8108 34.5027 25.9087C34.4888 25.9254 34.4747 25.9425 34.4601 25.96L32.1001 28.88C31.6001 29.5 31.0601 30.06 30.4401 30.54L27.5001 32.88C26.6601 33.54 26.1401 34.48 26.0401 35.52C25.9401 36.56 26.2401 37.6 26.8801 38.4C26.9801 38.52 27.0801 38.64 27.1801 38.74L29.4001 40.98ZM39.0208 36.2408C38.4902 36.6878 38.0075 37.1693 37.5863 37.7121L43.2599 43.96L43.4199 44.12C43.7399 44.4 44.1399 44.52 44.5799 44.5C44.9999 44.46 45.3799 44.26 45.6599 43.94C45.9399 43.62 46.0599 43.2 46.0199 42.78C45.9799 42.36 45.7799 41.98 45.4599 41.7L39.0208 36.2408ZM37.4601 27.5002C37.2268 27.5056 36.9957 27.6044 36.8401 27.76L34.4001 30.78C33.7801 31.56 33.0601 32.26 32.2801 32.9L29.3401 35.24C29.1401 35.4 29.0201 35.62 29.0001 35.86C28.9801 36.1 29.0401 36.36 29.2001 36.54L31.5001 38.86C31.6801 39.04 31.9001 39.12 32.1401 39.12C32.3801 39.12 32.6201 39.02 32.7801 38.86L35.2001 35.86C35.8201 35.08 36.5401 34.36 37.3201 33.74L40.2401 31.4C40.6401 31.08 40.7001 30.48 40.3801 30.08L38.0801 27.76C37.9246 27.6044 37.6934 27.5056 37.4601 27.5002Z" fill="url(#paint3_linear_7260_13017)"/>
<path d="M33.34 47.46H29.34C28.52 47.46 27.84 46.78 27.84 45.96C27.84 45.14 28.52 44.46 29.34 44.46H33.34C34.16 44.46 34.84 45.14 34.84 45.96C34.84 46.78 34.16 47.46 33.34 47.46Z" fill="#323232"/>
<path d="M33.34 47.46H29.34C28.52 47.46 27.84 46.78 27.84 45.96C27.84 45.14 28.52 44.46 29.34 44.46H33.34C34.16 44.46 34.84 45.14 34.84 45.96C34.84 46.78 34.16 47.46 33.34 47.46Z" fill="url(#paint4_linear_7260_13017)"/>
</g>
<defs>
<linearGradient id="paint0_linear_7260_13017" x1="26.5" y1="8.5" x2="26.5" y2="47.5" gradientUnits="userSpaceOnUse">
<stop stop-color="#03AB35"/>
<stop offset="1" stop-color="#57D57D"/>
</linearGradient>
<linearGradient id="paint1_linear_7260_13017" x1="25.5" y1="18.5" x2="25.5" y2="21.5" gradientUnits="userSpaceOnUse">
<stop stop-color="#03AB35"/>
<stop offset="1" stop-color="#57D57D"/>
</linearGradient>
<linearGradient id="paint2_linear_7260_13017" x1="21.5" y1="26.5" x2="21.5" y2="29.5" gradientUnits="userSpaceOnUse">
<stop stop-color="#03AB35"/>
<stop offset="1" stop-color="#57D57D"/>
</linearGradient>
<linearGradient id="paint3_linear_7260_13017" x1="37.5284" y1="24.48" x2="37.5284" y2="47.5" gradientUnits="userSpaceOnUse">
<stop stop-color="#03AB35"/>
<stop offset="1" stop-color="#57D57D"/>
</linearGradient>
<linearGradient id="paint4_linear_7260_13017" x1="31.34" y1="44.46" x2="31.34" y2="47.46" gradientUnits="userSpaceOnUse">
<stop stop-color="#03AB35"/>
<stop offset="1" stop-color="#57D57D"/>
</linearGradient>
<clipPath id="clip0_7260_13017">
<rect width="48" height="48" fill="white" transform="translate(5.5 4)"/>
</clipPath>
</defs>
</svg>
