<svg width="70" height="63" viewBox="0 0 70 63" fill="none" xmlns="http://www.w3.org/2000/svg">
<path d="M26.1514 1.14896C13.3081 -5.12683 4.15136 15.8327 1.17838 27.0969C-7.14597 53.0449 30.9082 45.2002 43.9893 37.9589C57.0704 30.7176 42.2055 8.99369 26.1514 1.14896Z" fill="#F1F1F1"/>
<path d="M61.1596 35.1319C60.5008 25.8476 45.7408 27.4789 38.4431 29.4551C21.1515 33.1744 37.9587 52.1063 46.2897 57.1399C54.6207 62.1735 61.983 46.7371 61.1596 35.1319Z" fill="#EFE3FF"/>
<g clip-path="url(#clip0_7260_13005)">
<path d="M40 47.5H18C14.96 47.5 12.5 45.04 12.5 42V14C12.5 10.96 14.96 8.5 18 8.5H40C43.04 8.5 45.5 10.96 45.5 14V20C45.5 20.82 44.82 21.5 44 21.5C43.18 21.5 42.5 20.82 42.5 20V14C42.5 12.62 41.38 11.5 40 11.5H18C16.62 11.5 15.5 12.62 15.5 14V42C15.5 43.38 16.62 44.5 18 44.5H40C41.38 44.5 42.5 43.38 42.5 42V32C42.5 31.18 43.18 30.5 44 30.5C44.82 30.5 45.5 31.18 45.5 32V42C45.5 45.04 43.04 47.5 40 47.5Z" fill="#323232"/>
<path d="M40 47.5H18C14.96 47.5 12.5 45.04 12.5 42V14C12.5 10.96 14.96 8.5 18 8.5H40C43.04 8.5 45.5 10.96 45.5 14V20C45.5 20.82 44.82 21.5 44 21.5C43.18 21.5 42.5 20.82 42.5 20V14C42.5 12.62 41.38 11.5 40 11.5H18C16.62 11.5 15.5 12.62 15.5 14V42C15.5 43.38 16.62 44.5 18 44.5H40C41.38 44.5 42.5 43.38 42.5 42V32C42.5 31.18 43.18 30.5 44 30.5C44.82 30.5 45.5 31.18 45.5 32V42C45.5 45.04 43.04 47.5 40 47.5Z" fill="url(#paint0_linear_7260_13005)"/>
<path d="M39.18 37.5H34C33.18 37.5 32.5 36.82 32.5 36V30.82C32.5 29.9 32.88 29 33.52 28.34L41.7 20.16C43.94 17.92 47.58 17.92 49.82 20.16C52.06 22.4 52.06 26.04 49.82 28.28L41.64 36.46C40.98 37.12 40.1 37.48 39.16 37.48L39.18 37.5ZM35.5 34.5H39.18C39.32 34.5 39.44 34.44 39.54 34.36L47.72 26.18C48.78 25.12 48.78 23.38 47.72 22.3C46.66 21.24 44.92 21.22 43.84 22.3L35.66 30.48C35.66 30.48 35.52 30.7 35.52 30.84V34.52L35.5 34.5Z" fill="#323232"/>
<path d="M39.18 37.5H34C33.18 37.5 32.5 36.82 32.5 36V30.82C32.5 29.9 32.88 29 33.52 28.34L41.7 20.16C43.94 17.92 47.58 17.92 49.82 20.16C52.06 22.4 52.06 26.04 49.82 28.28L41.64 36.46C40.98 37.12 40.1 37.48 39.16 37.48L39.18 37.5ZM35.5 34.5H39.18C39.32 34.5 39.44 34.44 39.54 34.36L47.72 26.18C48.78 25.12 48.78 23.38 47.72 22.3C46.66 21.24 44.92 21.22 43.84 22.3L35.66 30.48C35.66 30.48 35.52 30.7 35.52 30.84V34.52L35.5 34.5Z" fill="url(#paint1_linear_7260_13005)"/>
<path d="M28 29.5H22C21.18 29.5 20.5 28.82 20.5 28C20.5 27.18 21.18 26.5 22 26.5H28C28.82 26.5 29.5 27.18 29.5 28C29.5 28.82 28.82 29.5 28 29.5Z" fill="#323232"/>
<path d="M28 29.5H22C21.18 29.5 20.5 28.82 20.5 28C20.5 27.18 21.18 26.5 22 26.5H28C28.82 26.5 29.5 27.18 29.5 28C29.5 28.82 28.82 29.5 28 29.5Z" fill="url(#paint2_linear_7260_13005)"/>
<path d="M28 37.5H22C21.18 37.5 20.5 36.82 20.5 36C20.5 35.18 21.18 34.5 22 34.5H28C28.82 34.5 29.5 35.18 29.5 36C29.5 36.82 28.82 37.5 28 37.5Z" fill="#323232"/>
<path d="M28 37.5H22C21.18 37.5 20.5 36.82 20.5 36C20.5 35.18 21.18 34.5 22 34.5H28C28.82 34.5 29.5 35.18 29.5 36C29.5 36.82 28.82 37.5 28 37.5Z" fill="url(#paint3_linear_7260_13005)"/>
<path d="M36 21.5H22C21.18 21.5 20.5 20.82 20.5 20C20.5 19.18 21.18 18.5 22 18.5H36C36.82 18.5 37.5 19.18 37.5 20C37.5 20.82 36.82 21.5 36 21.5Z" fill="#323232"/>
<path d="M36 21.5H22C21.18 21.5 20.5 20.82 20.5 20C20.5 19.18 21.18 18.5 22 18.5H36C36.82 18.5 37.5 19.18 37.5 20C37.5 20.82 36.82 21.5 36 21.5Z" fill="url(#paint4_linear_7260_13005)"/>
</g>
<defs>
<linearGradient id="paint0_linear_7260_13005" x1="29" y1="8.5" x2="29" y2="47.5" gradientUnits="userSpaceOnUse">
<stop stop-color="#03AB35"/>
<stop offset="1" stop-color="#57D57D"/>
</linearGradient>
<linearGradient id="paint1_linear_7260_13005" x1="42" y1="18.48" x2="42" y2="37.5" gradientUnits="userSpaceOnUse">
<stop stop-color="#03AB35"/>
<stop offset="1" stop-color="#57D57D"/>
</linearGradient>
<linearGradient id="paint2_linear_7260_13005" x1="25" y1="26.5" x2="25" y2="29.5" gradientUnits="userSpaceOnUse">
<stop stop-color="#03AB35"/>
<stop offset="1" stop-color="#57D57D"/>
</linearGradient>
<linearGradient id="paint3_linear_7260_13005" x1="25" y1="34.5" x2="25" y2="37.5" gradientUnits="userSpaceOnUse">
<stop stop-color="#03AB35"/>
<stop offset="1" stop-color="#57D57D"/>
</linearGradient>
<linearGradient id="paint4_linear_7260_13005" x1="29" y1="18.5" x2="29" y2="21.5" gradientUnits="userSpaceOnUse">
<stop stop-color="#03AB35"/>
<stop offset="1" stop-color="#57D57D"/>
</linearGradient>
<clipPath id="clip0_7260_13005">
<rect width="48" height="48" fill="white" transform="translate(8 4)"/>
</clipPath>
</defs>
</svg>
