<svg width="70" height="63" viewBox="0 0 70 63" fill="none" xmlns="http://www.w3.org/2000/svg">
<path d="M26.1514 1.14896C13.3081 -5.12683 4.15136 15.8327 1.17838 27.0969C-7.14597 53.0449 30.9082 45.2002 43.9893 37.9589C57.0704 30.7176 42.2055 8.99369 26.1514 1.14896Z" fill="#F1F1F1"/>
<path d="M61.1596 35.1319C60.5008 25.8476 45.7408 27.4789 38.4431 29.4551C21.1515 33.1744 37.9587 52.1063 46.2897 57.1399C54.6207 62.1735 61.983 46.7371 61.1596 35.1319Z" fill="#EFE3FF"/>
<g clip-path="url(#clip0_7260_12994)">
<path d="M40.6399 50.5C40.1399 50.5 39.6199 50.46 39.0999 50.36C33.2999 49.26 27.3999 45.94 22.4799 41.02C17.5599 36.1 14.2399 30.2 13.1399 24.4C12.6399 21.78 13.4399 19.14 15.2599 17.32L16.5599 16.02C18.6399 13.94 22.2599 13.94 24.3399 16.02L26.6799 18.36C28.4599 20.14 28.3799 23.02 26.5199 24.9L24.8599 26.56C25.9799 29.1 27.6999 31.58 29.8199 33.7C31.9399 35.82 34.4399 37.56 37.0199 38.68L38.7799 36.84C40.4799 35.14 43.4399 35.14 45.1399 36.84L47.4799 39.18C49.6199 41.32 49.6199 44.82 47.4799 46.96L46.1799 48.26C44.7199 49.72 42.7199 50.52 40.6399 50.52V50.5ZM20.4599 17.4C19.7999 17.4 19.1599 17.66 18.6999 18.14L17.3999 19.44C16.2799 20.56 15.7999 22.2 16.1199 23.84C17.0999 29.06 20.1199 34.4 24.6199 38.9C29.1199 43.4 34.4799 46.42 39.6799 47.4C41.2999 47.72 42.9599 47.22 44.0799 46.12L45.3799 44.82C46.3599 43.84 46.3599 42.26 45.3799 41.28L43.0399 38.94C42.4799 38.38 41.4799 38.38 40.9199 38.94L39.0799 40.78C38.2399 41.62 36.9399 41.88 35.8599 41.42C32.9399 40.14 30.1199 38.2 27.7399 35.8C25.3599 33.4 23.4199 30.62 22.1399 27.72C21.6599 26.62 21.8999 25.3 22.7799 24.44L24.4399 22.78C25.1599 22.06 25.2199 21.1 24.5999 20.48L22.2599 18.14C21.7799 17.66 21.1599 17.4 20.4999 17.4H20.4599Z" fill="#323232"/>
<path d="M40.6399 50.5C40.1399 50.5 39.6199 50.46 39.0999 50.36C33.2999 49.26 27.3999 45.94 22.4799 41.02C17.5599 36.1 14.2399 30.2 13.1399 24.4C12.6399 21.78 13.4399 19.14 15.2599 17.32L16.5599 16.02C18.6399 13.94 22.2599 13.94 24.3399 16.02L26.6799 18.36C28.4599 20.14 28.3799 23.02 26.5199 24.9L24.8599 26.56C25.9799 29.1 27.6999 31.58 29.8199 33.7C31.9399 35.82 34.4399 37.56 37.0199 38.68L38.7799 36.84C40.4799 35.14 43.4399 35.14 45.1399 36.84L47.4799 39.18C49.6199 41.32 49.6199 44.82 47.4799 46.96L46.1799 48.26C44.7199 49.72 42.7199 50.52 40.6399 50.52V50.5ZM20.4599 17.4C19.7999 17.4 19.1599 17.66 18.6999 18.14L17.3999 19.44C16.2799 20.56 15.7999 22.2 16.1199 23.84C17.0999 29.06 20.1199 34.4 24.6199 38.9C29.1199 43.4 34.4799 46.42 39.6799 47.4C41.2999 47.72 42.9599 47.22 44.0799 46.12L45.3799 44.82C46.3599 43.84 46.3599 42.26 45.3799 41.28L43.0399 38.94C42.4799 38.38 41.4799 38.38 40.9199 38.94L39.0799 40.78C38.2399 41.62 36.9399 41.88 35.8599 41.42C32.9399 40.14 30.1199 38.2 27.7399 35.8C25.3599 33.4 23.4199 30.62 22.1399 27.72C21.6599 26.62 21.8999 25.3 22.7799 24.44L24.4399 22.78C25.1599 22.06 25.2199 21.1 24.5999 20.48L22.2599 18.14C21.7799 17.66 21.1599 17.4 20.4999 17.4H20.4599Z" fill="url(#paint0_linear_7260_12994)"/>
<path d="M40.2 24.8C39.82 24.8 39.44 24.66 39.14 24.36C37.94 23.16 36.32 22.48 34.6 22.48C34.56 22.48 34.52 22.48 34.48 22.48C33.66 22.48 33 21.82 32.98 21C32.98 20.18 33.64 19.5 34.46 19.48C36.98 19.46 39.44 20.42 41.24 22.22C41.82 22.8 41.82 23.76 41.24 24.34C40.94 24.64 40.56 24.78 40.18 24.78L40.2 24.8Z" fill="#323232"/>
<path d="M40.2 24.8C39.82 24.8 39.44 24.66 39.14 24.36C37.94 23.16 36.32 22.48 34.6 22.48C34.56 22.48 34.52 22.48 34.48 22.48C33.66 22.48 33 21.82 32.98 21C32.98 20.18 33.64 19.5 34.46 19.48C36.98 19.46 39.44 20.42 41.24 22.22C41.82 22.8 41.82 23.76 41.24 24.34C40.94 24.64 40.56 24.78 40.18 24.78L40.2 24.8Z" fill="url(#paint1_linear_7260_12994)"/>
<path d="M45.86 19.14C45.48 19.14 45.1 19 44.8 18.7C42.04 15.94 38.38 14.44 34.5 14.44C33.68 14.44 33 13.76 33 12.94C33 12.12 33.68 11.44 34.5 11.44C39.2 11.44 43.6 13.26 46.92 16.58C47.5 17.16 47.5 18.12 46.92 18.7C46.62 19 46.24 19.14 45.86 19.14Z" fill="#323232"/>
<path d="M45.86 19.14C45.48 19.14 45.1 19 44.8 18.7C42.04 15.94 38.38 14.44 34.5 14.44C33.68 14.44 33 13.76 33 12.94C33 12.12 33.68 11.44 34.5 11.44C39.2 11.44 43.6 13.26 46.92 16.58C47.5 17.16 47.5 18.12 46.92 18.7C46.62 19 46.24 19.14 45.86 19.14Z" fill="url(#paint2_linear_7260_12994)"/>
<path d="M42.5198 30.5H42.4998C41.6798 30.5 40.9998 29.8 41.0198 28.98C41.0398 27.22 40.3798 25.58 39.1398 24.36C38.5598 23.78 38.5598 22.82 39.1398 22.24C39.7198 21.66 40.6798 21.66 41.2598 22.24C43.0798 24.04 44.0398 26.46 44.0198 29.04C44.0198 29.86 43.3398 30.52 42.5198 30.52V30.5Z" fill="#323232"/>
<path d="M42.5198 30.5H42.4998C41.6798 30.5 40.9998 29.8 41.0198 28.98C41.0398 27.22 40.3798 25.58 39.1398 24.36C38.5598 23.78 38.5598 22.82 39.1398 22.24C39.7198 21.66 40.6798 21.66 41.2598 22.24C43.0798 24.04 44.0398 26.46 44.0198 29.04C44.0198 29.86 43.3398 30.52 42.5198 30.52V30.5Z" fill="url(#paint3_linear_7260_12994)"/>
<path d="M50.58 30.5C49.76 30.5 49.08 29.82 49.08 29C49.08 25.1 47.56 21.46 44.82 18.7C44.24 18.12 44.24 17.16 44.82 16.58C45.4 16 46.36 16 46.94 16.58C50.26 19.9 52.08 24.32 52.08 29C52.08 29.82 51.4 30.5 50.58 30.5Z" fill="#323232"/>
<path d="M50.58 30.5C49.76 30.5 49.08 29.82 49.08 29C49.08 25.1 47.56 21.46 44.82 18.7C44.24 18.12 44.24 17.16 44.82 16.58C45.4 16 46.36 16 46.94 16.58C50.26 19.9 52.08 24.32 52.08 29C52.08 29.82 51.4 30.5 50.58 30.5Z" fill="url(#paint4_linear_7260_12994)"/>
</g>
<defs>
<linearGradient id="paint0_linear_7260_12994" x1="31.0393" y1="14.46" x2="31.0393" y2="50.52" gradientUnits="userSpaceOnUse">
<stop stop-color="#03AB35"/>
<stop offset="1" stop-color="#57D57D"/>
</linearGradient>
<linearGradient id="paint1_linear_7260_12994" x1="37.3275" y1="19.4797" x2="37.3275" y2="24.8" gradientUnits="userSpaceOnUse">
<stop stop-color="#03AB35"/>
<stop offset="1" stop-color="#57D57D"/>
</linearGradient>
<linearGradient id="paint2_linear_7260_12994" x1="40.1775" y1="11.44" x2="40.1775" y2="19.14" gradientUnits="userSpaceOnUse">
<stop stop-color="#03AB35"/>
<stop offset="1" stop-color="#57D57D"/>
</linearGradient>
<linearGradient id="paint3_linear_7260_12994" x1="41.3625" y1="21.805" x2="41.3625" y2="30.52" gradientUnits="userSpaceOnUse">
<stop stop-color="#03AB35"/>
<stop offset="1" stop-color="#57D57D"/>
</linearGradient>
<linearGradient id="paint4_linear_7260_12994" x1="48.2325" y1="16.145" x2="48.2325" y2="30.5" gradientUnits="userSpaceOnUse">
<stop stop-color="#03AB35"/>
<stop offset="1" stop-color="#57D57D"/>
</linearGradient>
<clipPath id="clip0_7260_12994">
<rect width="48" height="48" fill="white" transform="translate(8.5 7)"/>
</clipPath>
</defs>
</svg>
