<svg width="116" height="104" viewBox="0 0 116 104" fill="none" xmlns="http://www.w3.org/2000/svg">
<path d="M43.6893 1.91948C22.233 -8.56503 6.93539 26.4506 1.96864 45.2689C-11.9383 88.6183 51.6361 75.5127 73.4898 63.4152C95.3435 51.3177 70.5098 15.0251 43.6893 1.91948Z" fill="#E3F8E9"/>
<path d="M102.175 58.6923C101.074 43.1818 76.4158 45.9071 64.2241 49.2085C35.3361 55.4221 63.4148 87.0504 77.3328 95.4596C91.2508 103.869 103.55 78.0804 102.175 58.6923Z" fill="#C7F1D4"/>
<g clip-path="url(#clip0_7209_7055)">
<path fill-rule="evenodd" clip-rule="evenodd" d="M73.7687 12.9475C73.7687 11.65 72.7169 10.5981 71.4194 10.5981C70.1219 10.5981 69.0701 11.65 69.0701 12.9475V16.0799C69.0701 17.3774 70.1219 18.4292 71.4194 18.4292C72.7169 18.4292 73.7687 17.3774 73.7687 16.0799V12.9475ZM47.4511 18.7373C49.6541 16.5344 52.6418 15.2968 55.7572 15.2968H62.0221C63.3196 15.2968 64.3714 16.3486 64.3714 17.6461C64.3714 18.9436 63.3196 19.9954 62.0221 19.9954H55.7572C53.888 19.9954 52.0953 20.738 50.7736 22.0597C49.4518 23.3815 48.7093 25.1742 48.7093 27.0434V51.1302L54.693 45.1489L54.6931 45.1488C56.0101 43.8323 57.7696 43.0526 59.6296 42.9611C61.4895 42.8696 63.317 43.4729 64.757 44.6537C66.1969 45.8346 67.1463 47.5086 67.4208 49.3504C67.6953 51.1923 67.2752 53.0704 66.2421 54.6198L66.242 54.6199L60.0872 63.8495H69.8534C71.7226 63.8495 73.5153 63.1069 74.837 61.7852C76.1588 60.4634 76.9013 58.6707 76.9013 56.8015V34.8745C76.9013 33.577 77.9531 32.5252 79.2506 32.5252C80.5481 32.5252 81.6 33.577 81.6 34.8745V56.8015C81.6 59.9169 80.3624 62.9047 78.1595 65.1076C75.9565 67.3105 72.9688 68.5481 69.8534 68.5481H56.9539L56.8671 68.6782L56.8671 68.6782C55.1024 71.3246 52.536 73.3358 49.5445 74.4167L49.5445 74.4167L40.1646 77.806C38.9443 78.2469 37.5977 77.6151 37.1567 76.3949C36.7158 75.1746 37.3476 73.8279 38.5679 73.387L47.9477 69.9977L47.9478 69.9977C49.9946 69.2581 51.7505 67.8821 52.9579 66.0714L52.9579 66.0714L62.3328 52.0131L62.3329 52.013C62.7191 51.4338 62.8761 50.7316 62.7735 50.043C62.6709 49.3543 62.3159 48.7284 61.7775 48.2869C61.2391 47.8454 60.5558 47.6199 59.8604 47.6541C59.165 47.6883 58.5072 47.9798 58.0148 48.4719L58.0147 48.472L51.153 55.331C50.7125 55.7714 50.115 56.0188 49.4921 56.0188H43.2273C41.9298 56.0188 40.8779 54.967 40.8779 53.6695C40.8779 52.372 41.9298 51.3202 43.2273 51.3202H44.0106V40.3562H42.3135C41.2193 40.3562 40.1402 40.611 39.1616 41.1003L39.1615 41.1003L37.3285 42.0168L37.3285 42.0168C36.1296 42.6163 35.1265 43.5452 34.4368 44.6946L26.4475 58.0102C25.7799 59.1228 24.3368 59.4836 23.2242 58.816C22.1116 58.1485 21.7508 56.7054 22.4184 55.5928L30.4078 42.2772C31.5572 40.3615 33.229 38.8133 35.2272 37.8142L35.2272 37.8142L37.0603 36.8977L37.0603 36.8977C38.6913 36.0822 40.4899 35.6576 42.3135 35.6576H44.0106V27.0434C44.0106 23.928 45.2482 20.9402 47.4511 18.7373ZM78.4674 25.4769C78.4674 24.1794 79.5192 23.1275 80.8167 23.1275H83.9491C85.2466 23.1275 86.2985 24.1794 86.2985 25.4769C86.2985 26.7743 85.2466 27.8262 83.9491 27.8262H80.8167C79.5192 27.8262 78.4674 26.7743 78.4674 25.4769ZM82.4783 17.7411C83.3957 16.8237 83.3957 15.3361 82.4783 14.4187C81.5608 13.5012 80.0733 13.5012 79.1558 14.4187L76.9408 16.6337C76.0234 17.5511 76.0234 19.0386 76.9408 19.9561C77.8583 20.8736 79.3458 20.8736 80.2633 19.9561L82.4783 17.7411Z" fill="url(#paint0_linear_7209_7055)"/>
</g>
<defs>
<linearGradient id="paint0_linear_7209_7055" x1="54.1909" y1="10.5981" x2="54.1909" y2="77.9464" gradientUnits="userSpaceOnUse">
<stop stop-color="#03AB35"/>
<stop offset="1" stop-color="#57D57D"/>
</linearGradient>
<clipPath id="clip0_7209_7055">
<rect width="75.1783" height="75.1783" fill="white" transform="translate(15.0356 6.68262)"/>
</clipPath>
</defs>
</svg>
