<svg width="20" height="20" viewBox="0 0 20 20" fill="none" xmlns="http://www.w3.org/2000/svg">
<g clip-path="url(#clip0_7655_59)">
<path fill-rule="evenodd" clip-rule="evenodd" d="M10.0001 3.95833C9.11641 3.95833 8.40898 4.23163 6.72162 4.90657L4.38123 5.84273C3.5392 6.17954 2.95573 6.41382 2.57754 6.61209C2.54058 6.63147 2.50727 6.64966 2.47731 6.66667C2.50727 6.68368 2.54058 6.70186 2.57754 6.72124C2.95573 6.91951 3.5392 7.15379 4.38123 7.4906L6.72162 8.42676C8.40898 9.1017 9.11641 9.375 10.0001 9.375C10.8838 9.375 11.5912 9.1017 13.2785 8.42676L15.6189 7.4906C16.461 7.15379 17.0444 6.91951 17.4226 6.72124C17.4596 6.70187 17.4929 6.68367 17.5229 6.66667C17.4929 6.64966 17.4596 6.63147 17.4226 6.61209C17.0444 6.41382 16.461 6.17954 15.6189 5.84273L13.2785 4.90657C11.5912 4.23163 10.8838 3.95833 10.0001 3.95833ZM6.35377 3.70742C7.91776 3.08163 8.85072 2.70833 10.0001 2.70833C11.1494 2.70833 12.0824 3.08163 13.6464 3.70741C13.6783 3.72016 13.7104 3.73302 13.7428 3.74598L16.121 4.69725C16.9164 5.01543 17.5607 5.27314 18.003 5.50501C18.2269 5.62236 18.4437 5.7554 18.6109 5.91578C18.7827 6.08057 18.9584 6.33048 18.9584 6.66667C18.9584 7.00285 18.7827 7.25277 18.6109 7.41755C18.4437 7.57794 18.2269 7.71098 18.003 7.82832C17.5607 8.0602 16.9165 8.3179 16.121 8.63608L13.7428 9.58736C13.7104 9.60031 13.6783 9.61317 13.6464 9.62592C12.0824 10.2517 11.1494 10.625 10.0001 10.625C8.85072 10.625 7.91776 10.2517 6.35377 9.62592C6.3219 9.61317 6.28978 9.60031 6.25738 9.58736L3.87921 8.63609C3.08372 8.31791 2.43942 8.0602 1.99714 7.82832C1.7733 7.71098 1.55646 7.57794 1.38925 7.41755C1.21745 7.25277 1.04175 7.00285 1.04175 6.66667C1.04175 6.33048 1.21745 6.08057 1.38925 5.91578C1.55646 5.7554 1.7733 5.62236 1.99714 5.50501C2.43942 5.27314 3.08372 5.01543 3.87922 4.69724L6.25738 3.74598C6.28977 3.73302 6.3219 3.72017 6.35377 3.70742ZM2.08255 9.53338L2.08559 9.53603C2.08926 9.53921 2.0961 9.54507 2.1061 9.55342C2.12611 9.57013 2.15876 9.59677 2.20407 9.63179C2.2947 9.70182 2.43582 9.80525 2.62741 9.9295C3.01062 10.178 3.59524 10.5095 4.38123 10.8239L6.72162 11.7601C8.40898 12.435 9.11641 12.7083 10.0001 12.7083C10.8838 12.7083 11.5912 12.435 13.2785 11.7601L15.6189 10.8239C16.4049 10.5095 16.9895 10.178 17.3728 9.9295C17.5643 9.80525 17.7055 9.70182 17.7961 9.63179C17.8414 9.59677 17.8741 9.57013 17.8941 9.55342C17.9041 9.54507 17.9109 9.53921 17.9146 9.53603L17.9163 9.53455C17.9167 9.53417 17.9172 9.53372 17.9177 9.53335C18.1746 9.30436 18.5686 9.32624 18.7987 9.58265C19.0291 9.8396 19.0077 10.2347 18.7508 10.4652L18.3334 10C18.7508 10.4652 18.7509 10.4651 18.7508 10.4652L18.7496 10.4663L18.7481 10.4676L18.7443 10.471L18.7329 10.481C18.7236 10.489 18.7111 10.4997 18.6952 10.513C18.6635 10.5394 18.6186 10.5759 18.5604 10.6209C18.4442 10.7107 18.275 10.8342 18.0529 10.9783C17.6087 11.2664 16.9521 11.637 16.0832 11.9845L13.7428 12.9207C13.7104 12.9336 13.6783 12.9465 13.6464 12.9593C12.0824 13.585 11.1494 13.9583 10.0001 13.9583C8.85072 13.9583 7.91776 13.585 6.35377 12.9593C6.3219 12.9465 6.28978 12.9336 6.25738 12.9207L3.91699 11.9845C3.04807 11.637 2.39151 11.2664 1.94726 10.9783C1.72513 10.8342 1.55596 10.7107 1.43972 10.6209C1.38159 10.5759 1.33668 10.5394 1.30497 10.513C1.28911 10.4997 1.27656 10.489 1.2673 10.481L1.25588 10.471L1.25202 10.4676L1.25056 10.4663L1.24966 10.4655C1.24953 10.4654 1.2494 10.4652 1.66675 10L1.24966 10.4655C0.992718 10.235 0.971015 9.8396 1.20151 9.58265C1.43154 9.32623 1.82557 9.30436 2.08255 9.53338ZM17.9164 12.8678C17.9168 12.8674 17.9172 12.8671 17.9177 12.8667C18.1746 12.6377 18.5686 12.6596 18.7987 12.916C19.0291 13.1729 19.0077 13.5681 18.7508 13.7986L18.3334 13.3333C18.7508 13.7986 18.7509 13.7985 18.7508 13.7986L18.7496 13.7996L18.7481 13.8009L18.7443 13.8043L18.7329 13.8143C18.7236 13.8223 18.7111 13.833 18.6952 13.8463C18.6635 13.8728 18.6186 13.9093 18.5604 13.9542C18.4442 14.044 18.275 14.1675 18.0529 14.3116C17.6087 14.5997 16.9521 14.9703 16.0832 15.3179L13.7428 16.254C13.7104 16.267 13.6783 16.2798 13.6464 16.2926C12.0824 16.9184 11.1494 17.2917 10.0001 17.2917C8.85072 17.2917 7.91776 16.9184 6.35377 16.2926C6.3219 16.2798 6.28978 16.267 6.25738 16.254L3.91699 15.3179C3.04807 14.9703 2.39151 14.5997 1.94726 14.3116C1.72513 14.1675 1.55596 14.044 1.43972 13.9542C1.38159 13.9093 1.33668 13.8728 1.30497 13.8463C1.28911 13.833 1.27656 13.8223 1.2673 13.8143L1.25588 13.8043L1.25202 13.8009L1.25056 13.7996L1.24966 13.7988C1.24953 13.7987 1.2494 13.7986 1.66675 13.3333L1.24966 13.7988C0.992718 13.5683 0.971015 13.1729 1.20151 12.916C1.43153 12.6596 1.82552 12.6377 2.08251 12.8667C2.08234 12.8665 2.08267 12.8668 2.08251 12.8667C2.08266 12.8668 2.08331 12.8674 2.08347 12.8675C2.08334 12.8674 2.08359 12.8676 2.08347 12.8675L2.08559 12.8694C2.08926 12.8725 2.0961 12.8784 2.1061 12.8868C2.12611 12.9035 2.15876 12.9301 2.20407 12.9651C2.2947 13.0352 2.43582 13.1386 2.62741 13.2628C3.01062 13.5114 3.59524 13.8429 4.38123 14.1573L6.72162 15.0934C8.40898 15.7684 9.11641 16.0417 10.0001 16.0417C10.8838 16.0417 11.5912 15.7684 13.2785 15.0934L15.6189 14.1573C16.4049 13.8429 16.9895 13.5114 17.3728 13.2628C17.5643 13.1386 17.7055 13.0352 17.7961 12.9651C17.8414 12.9301 17.8741 12.9035 17.8941 12.8868C17.9041 12.8784 17.9109 12.8725 17.9146 12.8694L17.9164 12.8678Z" fill="black"/>
</g>
<defs>
<clipPath id="clip0_7655_59">
<rect width="20" height="20" fill="white"/>
</clipPath>
</defs>
</svg>
