<svg width="70" height="63" viewBox="0 0 70 63" fill="none" xmlns="http://www.w3.org/2000/svg">
<path d="M26.1514 1.14896C13.3081 -5.12683 4.15136 15.8327 1.17838 27.0969C-7.14597 53.0449 30.9082 45.2002 43.9893 37.9589C57.0704 30.7176 42.2055 8.99369 26.1514 1.14896Z" fill="#F1F1F1"/>
<path d="M61.1596 35.1319C60.5008 25.8476 45.7408 27.4789 38.4431 29.4551C21.1515 33.1744 37.9587 52.1063 46.2897 57.1399C54.6207 62.1735 61.983 46.7371 61.1596 35.1319Z" fill="#EFE3FF"/>
<g clip-path="url(#clip0_7260_12983)">
<path fill-rule="evenodd" clip-rule="evenodd" d="M44.5 41.12L44.5001 41.137V43.78L40.7801 40.06C40.6512 39.9311 40.5035 39.8308 40.3454 39.7592C40.1544 39.67 39.9423 39.62 39.72 39.62H34C32.06 39.62 30.5 38.04 30.5 36.12V33.98C30.5 33.16 29.82 32.48 29 32.48C28.18 32.48 27.5 33.16 27.5 33.98V36.12C27.5 39.7 30.42 42.62 34 42.62H39.1001L43.2401 46.76C43.7001 47.24 44.3401 47.5 45.0001 47.5V47.48C46.3801 47.48 47.5001 46.36 47.5001 44.98V42.4448C50.3611 41.7645 52.5 39.184 52.5 36.12V27.98C52.5 24.4 49.58 21.48 46 21.48H45C44.18 21.48 43.5 22.16 43.5 22.98C43.5 23.8 44.18 24.48 45 24.48H46C47.94 24.48 49.5 26.06 49.5 27.98V36.12C49.5 38.06 47.92 39.62 46 39.62C45.18 39.62 44.5 40.3 44.5 41.12Z" fill="#323232"/>
<path fill-rule="evenodd" clip-rule="evenodd" d="M44.5 41.12L44.5001 41.137V43.78L40.7801 40.06C40.6512 39.9311 40.5035 39.8308 40.3454 39.7592C40.1544 39.67 39.9423 39.62 39.72 39.62H34C32.06 39.62 30.5 38.04 30.5 36.12V33.98C30.5 33.16 29.82 32.48 29 32.48C28.18 32.48 27.5 33.16 27.5 33.98V36.12C27.5 39.7 30.42 42.62 34 42.62H39.1001L43.2401 46.76C43.7001 47.24 44.3401 47.5 45.0001 47.5V47.48C46.3801 47.48 47.5001 46.36 47.5001 44.98V42.4448C50.3611 41.7645 52.5 39.184 52.5 36.12V27.98C52.5 24.4 49.58 21.48 46 21.48H45C44.18 21.48 43.5 22.16 43.5 22.98C43.5 23.8 44.18 24.48 45 24.48H46C47.94 24.48 49.5 26.06 49.5 27.98V36.12C49.5 38.06 47.92 39.62 46 39.62C45.18 39.62 44.5 40.3 44.5 41.12Z" fill="url(#paint0_linear_7260_12983)"/>
<path d="M21 34.5C20.36 34.5 19.72 34.26 19.24 33.76C18.76 33.28 18.5 32.66 18.5 32V29.32C15.64 28.64 13.5 26.06 13.5 23V14.98C13.5 11.4 16.42 8.48001 20 8.48001H34.02C37.6 8.48001 40.52 11.4 40.52 14.98V23C40.52 26.58 37.6 29.5 34.02 29.5H27.04L22.78 33.76C22.3 34.24 21.66 34.5 21.02 34.5H21ZM20 11.5C18.08 11.5 16.5 13.06 16.5 15V23.02C16.5 24.94 18.06 26.52 20 26.52C20.82 26.52 21.5 27.2 21.5 28.02V30.82L25.36 26.96C25.64 26.68 26.02 26.52 26.42 26.52H34.02C35.94 26.52 37.52 24.96 37.52 23.02V15C37.52 13.08 35.96 11.5 34.02 11.5H20Z" fill="#323232"/>
<path d="M21 34.5C20.36 34.5 19.72 34.26 19.24 33.76C18.76 33.28 18.5 32.66 18.5 32V29.32C15.64 28.64 13.5 26.06 13.5 23V14.98C13.5 11.4 16.42 8.48001 20 8.48001H34.02C37.6 8.48001 40.52 11.4 40.52 14.98V23C40.52 26.58 37.6 29.5 34.02 29.5H27.04L22.78 33.76C22.3 34.24 21.66 34.5 21.02 34.5H21ZM20 11.5C18.08 11.5 16.5 13.06 16.5 15V23.02C16.5 24.94 18.06 26.52 20 26.52C20.82 26.52 21.5 27.2 21.5 28.02V30.82L25.36 26.96C25.64 26.68 26.02 26.52 26.42 26.52H34.02C35.94 26.52 37.52 24.96 37.52 23.02V15C37.52 13.08 35.96 11.5 34.02 11.5H20Z" fill="url(#paint1_linear_7260_12983)"/>
</g>
<defs>
<linearGradient id="paint0_linear_7260_12983" x1="40" y1="21.48" x2="40" y2="47.5" gradientUnits="userSpaceOnUse">
<stop stop-color="#03AB35"/>
<stop offset="1" stop-color="#57D57D"/>
</linearGradient>
<linearGradient id="paint1_linear_7260_12983" x1="27.01" y1="8.48001" x2="27.01" y2="34.5" gradientUnits="userSpaceOnUse">
<stop stop-color="#03AB35"/>
<stop offset="1" stop-color="#57D57D"/>
</linearGradient>
<clipPath id="clip0_7260_12983">
<rect width="48" height="48" fill="white" transform="translate(9 4)"/>
</clipPath>
</defs>
</svg>
