<svg width="14" height="14" viewBox="0 0 14 14" fill="none" xmlns="http://www.w3.org/2000/svg">
<path d="M5.10203 2.60558C5.94646 1.09075 6.36868 0.333328 6.99992 0.333328C7.63116 0.333328 8.05338 1.09074 8.89781 2.60558L9.11627 2.99748C9.35624 3.42795 9.47622 3.64319 9.66329 3.7852C9.85036 3.92721 10.0834 3.97993 10.5493 4.08536L10.9736 4.18135C12.6133 4.55237 13.4332 4.73787 13.6283 5.36515C13.8234 5.99242 13.2644 6.64604 12.1465 7.95328L11.8573 8.29148C11.5396 8.66295 11.3808 8.84869 11.3093 9.07847C11.2379 9.30826 11.2619 9.55607 11.3099 10.0517L11.3537 10.5029C11.5227 12.2471 11.6072 13.1191 11.0965 13.5068C10.5858 13.8945 9.81814 13.541 8.2828 12.8341L7.8856 12.6512C7.4493 12.4503 7.23115 12.3499 6.99992 12.3499C6.76868 12.3499 6.55054 12.4503 6.11424 12.6512L5.71703 12.8341C4.1817 13.541 3.41404 13.8945 2.90335 13.5068C2.39267 13.1191 2.47717 12.2471 2.64618 10.5029L2.68991 10.0517C2.73794 9.55607 2.76195 9.30826 2.69049 9.07847C2.61904 8.84869 2.4602 8.66295 2.14253 8.29148L1.85332 7.95328C0.735418 6.64604 0.176468 5.99242 0.371533 5.36515C0.566597 4.73787 1.38649 4.55237 3.02628 4.18135L3.45051 4.08536C3.91649 3.97993 4.14947 3.92721 4.33655 3.7852C4.52362 3.64319 4.6436 3.42795 4.88356 2.99748L5.10203 2.60558Z" fill="#FFD800"/>
</svg>
