<svg width="16" height="16" viewBox="0 0 16 16" fill="none" xmlns="http://www.w3.org/2000/svg">
<g clip-path="url(#clip0_7622_3587)">
<path fill-rule="evenodd" clip-rule="evenodd" d="M7.49212 1.86608C7.08276 1.92018 6.57727 2.03629 5.85818 2.20224L5.0394 2.39119C4.43205 2.53134 4.0138 2.62851 3.69433 2.73815C3.38591 2.844 3.21143 2.94835 3.07977 3.08001C2.94811 3.21168 2.84376 3.38616 2.73791 3.69458C2.62826 4.01404 2.5311 4.4323 2.39094 5.03964L2.20199 5.85843C2.03605 6.57751 1.91994 7.083 1.86584 7.49237C1.81313 7.89117 1.82529 8.161 1.89564 8.40631C1.96599 8.65161 2.0987 8.88687 2.35476 9.19712C2.61759 9.51559 2.98397 9.8827 3.5058 10.4045L4.72555 11.6243C5.63188 12.5306 6.2768 13.174 6.83126 13.5971C7.37417 14.0113 7.77117 14.1668 8.1748 14.1668C8.57843 14.1668 8.97543 14.0113 9.51834 13.5971C10.0728 13.174 10.7177 12.5306 11.624 11.6243C12.5304 10.718 13.1738 10.073 13.5968 9.51859C14.0111 8.97567 14.1666 8.57867 14.1666 8.17504C14.1666 7.77142 14.0111 7.37442 13.5968 6.8315C13.1738 6.27705 12.5304 5.63212 11.624 4.7258L10.4043 3.50604C9.88246 2.98421 9.51534 2.61784 9.19688 2.355C8.88662 2.09894 8.65136 1.96623 8.40606 1.89588C8.16076 1.82553 7.89093 1.81338 7.49212 1.86608ZM7.3611 0.874702C7.83931 0.811504 8.25864 0.813288 8.68175 0.934633C9.10485 1.05598 9.46138 1.27671 9.83341 1.58375C10.193 1.88057 10.5936 2.2811 11.0939 2.78148L12.3578 4.04533C13.2315 4.91906 13.9233 5.61082 14.3918 6.22492C14.8739 6.85679 15.1666 7.46486 15.1666 8.17504C15.1666 8.88523 14.8739 9.4933 14.3918 10.1252C13.9233 10.7393 13.2315 11.431 12.3578 12.3048L12.3045 12.358C11.4308 13.2318 10.739 13.9235 10.1249 14.3921C9.49306 14.8742 8.88499 15.1668 8.1748 15.1668C7.46461 15.1668 6.85654 14.8742 6.22468 14.3921C5.61057 13.9235 4.91881 13.2318 4.04506 12.358L2.78122 11.0942C2.28085 10.5938 1.88032 10.1933 1.58351 9.83365C1.27646 9.46163 1.05573 9.10509 0.934389 8.68199C0.813044 8.25888 0.81126 7.83956 0.874458 7.36135C0.935552 6.89906 1.06292 6.34715 1.22204 5.65764L1.42249 4.78906C1.55526 4.21365 1.66354 3.74443 1.79206 3.36995C1.92628 2.97887 2.09534 2.65023 2.37266 2.37291C2.64999 2.09558 2.97862 1.92653 3.36971 1.79231C3.74418 1.66378 4.21341 1.55551 4.78882 1.42273L5.6574 1.22229C6.3469 1.06317 6.89882 0.935796 7.3611 0.874702ZM6.32721 5.33026C6.00177 5.00482 5.47414 5.00482 5.1487 5.33026C4.82326 5.6557 4.82326 6.18333 5.1487 6.50877C5.47414 6.83421 6.00177 6.83421 6.32721 6.50877C6.65265 6.18333 6.65265 5.6557 6.32721 5.33026ZM4.44159 4.62315C5.15755 3.90719 6.31836 3.90719 7.03432 4.62315C7.75028 5.33911 7.75028 6.49992 7.03432 7.21588C6.31836 7.93184 5.15755 7.93184 4.44159 7.21588C3.72563 6.49992 3.72563 5.33911 4.44159 4.62315ZM12.7006 7.32694C12.8959 7.5222 12.8959 7.83878 12.7006 8.03405L8.04798 12.6869C7.85272 12.8821 7.53614 12.8822 7.34087 12.6869C7.14561 12.4916 7.1456 12.1751 7.34086 11.9798L11.9935 7.32696C12.1888 7.13169 12.5054 7.13168 12.7006 7.32694Z" fill="black"/>
</g>
<defs>
<clipPath id="clip0_7622_3587">
<rect width="16" height="16" fill="white"/>
</clipPath>
</defs>
</svg>
