<svg width="16" height="14" viewBox="0 0 16 14" fill="none" xmlns="http://www.w3.org/2000/svg">
<path fill-rule="evenodd" clip-rule="evenodd" d="M3.30217 0.500001C3.31258 0.500001 3.32302 0.500002 3.3335 0.500002L12.6982 0.500001C13.1428 0.49998 13.5229 0.499962 13.8267 0.538283C14.1489 0.578924 14.4603 0.670197 14.716 0.910162C14.9763 1.15436 15.0797 1.45904 15.1252 1.77603C15.1669 2.06723 15.1669 2.42931 15.1668 2.84239L15.1668 3.36008C15.1668 3.68575 15.1669 3.9673 15.1425 4.20207C15.1164 4.45471 15.0592 4.69173 14.9219 4.91929C14.7856 5.14513 14.602 5.30907 14.3904 5.45602C14.1911 5.59446 13.9365 5.7378 13.637 5.90637L11.6754 7.01063C11.2289 7.26199 11.0734 7.3525 10.9696 7.44262C10.7312 7.64958 10.5947 7.87921 10.5306 8.16692C10.5031 8.28991 10.5002 8.44481 10.5002 8.91529L10.5002 10.7367C10.5002 11.3375 10.5002 11.8476 10.4384 12.2397C10.3727 12.6567 10.22 13.0566 9.82001 13.3068C9.42911 13.5513 8.9985 13.5289 8.58003 13.4295C8.177 13.3338 7.68034 13.1396 7.0844 12.9066L7.02648 12.884C6.74733 12.7749 6.5029 12.6793 6.30939 12.5794C6.10143 12.472 5.90829 12.3384 5.76053 12.1305C5.6111 11.9202 5.5512 11.6947 5.52448 11.4642C5.50012 11.254 5.50014 11.0018 5.50016 10.7204L5.50017 8.91529C5.50017 8.44481 5.4972 8.28991 5.46978 8.16692C5.40563 7.87921 5.26911 7.64958 5.03072 7.44262C4.92692 7.3525 4.77144 7.26199 4.32492 7.01063L2.3633 5.90637C2.06382 5.7378 1.80918 5.59446 1.60989 5.45602C1.39832 5.30907 1.21477 5.14513 1.07848 4.91929C0.941152 4.69173 0.883967 4.45471 0.857795 4.20207C0.833472 3.9673 0.833485 3.68575 0.833499 3.36008L0.833499 2.87644C0.833499 2.86505 0.833499 2.85369 0.833498 2.84238C0.833467 2.42931 0.833439 2.06723 0.875167 1.77603C0.920592 1.45904 1.024 1.15436 1.28428 0.910163C1.54005 0.670197 1.85146 0.578924 2.17365 0.538283C2.47745 0.499962 2.85754 0.49998 3.30217 0.500001ZM2.2988 1.53042C2.07636 1.55848 2.00563 1.60461 1.9685 1.63944C1.93589 1.67004 1.89285 1.7239 1.86506 1.91789C1.8347 2.1297 1.8335 2.41912 1.8335 2.87644V3.33632C1.8335 3.69246 1.83412 3.92185 1.85247 4.09903C1.86957 4.26404 1.89891 4.34338 1.93466 4.40261C1.97143 4.46355 2.0325 4.532 2.18039 4.63473C2.3362 4.74296 2.54907 4.86339 2.87345 5.04599L4.81547 6.13922C4.83365 6.14945 4.85156 6.15953 4.86921 6.16946C5.24168 6.379 5.49535 6.52172 5.68629 6.68749C6.08053 7.02975 6.33348 7.44548 6.44581 7.9493C6.50041 8.19417 6.50031 8.46874 6.50018 8.85632C6.50017 8.87569 6.50017 8.89534 6.50017 8.91529V10.6949C6.50017 11.0097 6.50094 11.2033 6.51783 11.3491C6.53311 11.4809 6.55718 11.5252 6.5757 11.5512C6.59589 11.5797 6.63587 11.6225 6.76818 11.6909C6.90979 11.764 7.10489 11.8409 7.41298 11.9614C8.05365 12.2118 8.48459 12.379 8.81111 12.4566C9.13018 12.5323 9.23532 12.493 9.28972 12.459C9.335 12.4307 9.40502 12.3731 9.4506 12.084C9.49868 11.7791 9.50016 11.349 9.50016 10.6949V8.91529C9.50016 8.89535 9.50016 8.8757 9.50015 8.85633C9.50002 8.46875 9.49993 8.19417 9.55452 7.9493C9.66686 7.44547 9.9198 7.02975 10.314 6.68749C10.505 6.52172 10.7586 6.37901 11.1311 6.16947C11.1488 6.15954 11.1667 6.14946 11.1849 6.13921L13.1269 5.04599C13.4513 4.86339 13.6641 4.74296 13.8199 4.63473C13.9678 4.532 14.0289 4.46355 14.0657 4.40261C14.1014 4.34338 14.1308 4.26404 14.1479 4.09903C14.1662 3.92185 14.1668 3.69246 14.1668 3.33632V2.87644C14.1668 2.41912 14.1656 2.1297 14.1353 1.91789C14.1075 1.7239 14.0644 1.67004 14.0318 1.63944C13.9947 1.60461 13.924 1.55848 13.7015 1.53042C13.4678 1.50094 13.1515 1.5 12.6668 1.5H3.3335C2.84881 1.5 2.53253 1.50094 2.2988 1.53042Z" fill="black"/>
</svg>
