<svg width="16" height="16" viewBox="0 0 16 16" fill="none" xmlns="http://www.w3.org/2000/svg">
<path d="M6.00016 11.5C5.72402 11.5 5.50016 11.7239 5.50016 12C5.50016 12.2762 5.72402 12.5 6.00016 12.5H10.0002C10.2763 12.5 10.5002 12.2762 10.5002 12C10.5002 11.7239 10.2763 11.5 10.0002 11.5H6.00016Z" fill="black"/>
<path fill-rule="evenodd" clip-rule="evenodd" d="M8.00016 0.833344C7.52809 0.833344 7.09918 0.968557 6.63387 1.19484C6.18406 1.41357 5.66444 1.73607 5.0154 2.13889L3.63769 2.99394C3.02355 3.37508 2.53179 3.68028 2.15276 3.97055C1.76026 4.27114 1.45879 4.57727 1.24104 4.9751C1.02373 5.37209 0.925874 5.7945 0.878956 6.29381C0.833487 6.77771 0.833491 7.36942 0.833496 8.1115V9.18658C0.833487 10.4558 0.83348 11.4577 0.935298 12.2411C1.03974 13.0447 1.2592 13.6934 1.75507 14.2063C2.25322 14.7216 2.88713 14.9518 3.6719 15.0609C4.43249 15.1667 5.40387 15.1667 6.62806 15.1667H9.37223C10.5964 15.1667 11.5678 15.1667 12.3284 15.0609C13.1132 14.9518 13.7471 14.7216 14.2453 14.2063C14.7411 13.6934 14.9606 13.0447 15.065 12.2411C15.1668 11.4577 15.1668 10.4558 15.1668 9.18658V8.11148C15.1668 7.36944 15.1668 6.77769 15.1214 6.29381C15.0745 5.7945 14.9766 5.37209 14.7593 4.9751C14.5415 4.57727 14.2401 4.27114 13.8476 3.97055C13.4685 3.68028 12.9768 3.37509 12.3627 2.99395L10.9849 2.13889C10.3359 1.73607 9.81626 1.41357 9.36646 1.19484C8.90114 0.968557 8.47224 0.833344 8.00016 0.833344ZM5.51985 3.00276C6.19702 2.58248 6.67316 2.2877 7.07119 2.09414C7.45898 1.90556 7.73362 1.83334 8.00016 1.83334C8.26671 1.83334 8.54134 1.90556 8.92913 2.09414C9.32716 2.2877 9.8033 2.58248 10.4805 3.00275L11.8138 3.83026C12.4544 4.22781 12.9041 4.50758 13.2395 4.76448C13.5659 5.01444 13.7537 5.22072 13.8821 5.45525C14.0109 5.69061 14.0861 5.96578 14.1258 6.38737C14.1663 6.81907 14.1668 7.36389 14.1668 8.13596V9.14998C14.1668 10.464 14.1658 11.4008 14.0734 12.1122C13.9826 12.8109 13.8115 13.2163 13.5263 13.5112C13.2434 13.8039 12.8583 13.9776 12.1907 14.0705C11.5069 14.1655 10.6052 14.1667 9.3335 14.1667H6.66683C5.39514 14.1667 4.49338 14.1655 3.80964 14.0705C3.14207 13.9776 2.75692 13.8039 2.47402 13.5112C2.18884 13.2163 2.01777 12.8109 1.92696 12.1122C1.83449 11.4008 1.8335 10.464 1.8335 9.14998V8.13596C1.8335 7.36389 1.834 6.81907 1.87457 6.38737C1.91419 5.96578 1.98939 5.69061 2.11822 5.45525C2.2466 5.22072 2.43438 5.01444 2.76078 4.76448C3.09623 4.50758 3.54596 4.22781 4.18651 3.83026L5.51985 3.00276Z" fill="black"/>
</svg>
