<svg width="80" height="25" viewBox="0 0 80 25" fill="none" xmlns="http://www.w3.org/2000/svg">
<path d="M72.5991 17.7624C72.4399 17.7624 72.3604 17.6828 72.3604 17.5236V14.3961C72.3604 14.237 72.4399 14.1574 72.5991 14.1574H75.1775C75.4799 14.1574 75.7346 14.046 75.9415 13.8231C76.1643 13.6003 76.2757 13.3377 76.2757 13.0353V8.14111H79.6897V13.2502C79.6897 14.0619 79.4907 14.8179 79.0928 15.5182C78.6949 16.2026 78.1538 16.7517 77.4694 17.1655C76.785 17.5634 76.029 17.7624 75.2014 17.7624H72.5991ZM72.623 19.8155H75.6788V22.8714H72.623V19.8155ZM76.9203 19.8155H80.0001V22.8714H76.9203V19.8155Z" fill="black"/>
<path d="M60.1025 17.7623C59.9433 17.7623 59.8638 17.6827 59.8638 17.5236V14.3961C59.8638 14.2369 59.9433 14.1573 60.1025 14.1573H65.4742C65.9039 14.1573 66.27 14.0141 66.5724 13.7276C66.8748 13.4411 67.026 13.0591 67.026 12.5816C67.026 12.0087 66.7554 11.555 66.2143 11.2208L60.8187 7.66358V5.0613L65.5697 0L67.9332 2.22029L64.376 5.92077L68.3391 8.52304C69.0075 8.95278 69.5248 9.53371 69.8909 10.2658C70.2729 10.9821 70.4639 11.7779 70.4639 12.6533C70.4639 13.5764 70.2331 14.4279 69.7715 15.2078C69.3259 15.9877 68.721 16.6084 67.9571 17.07C67.1931 17.5315 66.3496 17.7623 65.4264 17.7623H60.1025ZM71.5621 17.7623C70.3524 17.7623 69.4054 17.3405 68.721 16.497C68.0526 15.6375 67.7183 14.5552 67.7183 13.2501V12.6533H70.4639V13.0352C70.4639 13.3536 70.5673 13.6241 70.7742 13.847C70.9811 14.0539 71.2437 14.1573 71.5621 14.1573H72.5886C72.7478 14.1573 72.8274 14.2369 72.8274 14.3961V17.5236C72.8274 17.6827 72.7478 17.7623 72.5886 17.7623H71.5621Z" fill="black"/>
<path d="M56.885 17.7627C56.7258 17.7627 56.6462 17.6831 56.6462 17.524V14.3965C56.6462 14.2373 56.7258 14.1577 56.885 14.1577H60.108C60.2671 14.1577 60.3467 14.2373 60.3467 14.3965V17.524C60.3467 17.6831 60.2671 17.7627 60.108 17.7627H56.885Z" fill="black"/>
<path d="M43.4997 21.5103C44.9163 20.9055 45.9667 20.4121 46.6511 20.0301C47.3514 19.6481 47.8289 19.29 48.0836 18.9558C48.3382 18.6216 48.4655 18.2237 48.4655 17.7621H46.9137C45.9588 17.7621 45.0834 17.5472 44.2876 17.1175C43.4918 16.6878 42.8551 16.0989 42.3777 15.3508C41.9161 14.5868 41.6853 13.7353 41.6853 12.7963C41.6853 11.8413 41.9161 10.9659 42.3777 10.1701C42.8551 9.37434 43.4918 8.74566 44.2876 8.28409C45.0834 7.80661 45.9588 7.56787 46.9137 7.56787C47.8369 7.56787 48.6804 7.80661 49.4444 8.28409C50.2083 8.74566 50.8052 9.37434 51.2349 10.1701C51.6647 10.9659 51.8795 11.8413 51.8795 12.7963V16.2819C51.8795 17.7621 51.6487 18.9558 51.1872 19.863C50.7415 20.7861 50.0094 21.5819 48.9908 22.2504C47.9881 22.9348 46.5158 23.6988 44.5741 24.5423L43.4997 21.5103ZM48.4655 14.372V12.7724C48.4655 12.3109 48.3143 11.9289 48.0119 11.6265C47.7254 11.3241 47.3594 11.1729 46.9137 11.1729C46.4522 11.1729 46.0622 11.3241 45.7439 11.6265C45.4415 11.9289 45.2903 12.3109 45.2903 12.7724C45.2903 13.234 45.4415 13.616 45.7439 13.9184C46.0622 14.2208 46.4522 14.372 46.9137 14.372H48.4655Z" fill="black"/>
<path d="M29.2983 14.3961C29.2983 14.2369 29.3779 14.1573 29.5371 14.1573H34.9087C35.3385 14.1573 35.7045 14.0141 36.007 13.7276C36.3094 13.4411 36.4606 13.0591 36.4606 12.5816C36.4606 12.0087 36.19 11.555 35.6488 11.2208L30.2533 7.66358V5.0613L35.0042 0L37.3678 2.22029L33.8105 5.92077L37.7736 8.52304C38.4421 8.95278 38.9594 9.53371 39.3255 10.2658C39.7074 10.9821 39.8984 11.7779 39.8984 12.6533C39.8984 13.5764 39.6676 14.4279 39.2061 15.2078C38.7604 15.9877 38.1556 16.6084 37.3917 17.07C36.6277 17.5315 35.7841 17.7623 34.861 17.7623H29.5371C29.3779 17.7623 29.2983 17.6827 29.2983 17.5236V14.3961Z" fill="black"/>
<path d="M20.5554 14.3962C20.5554 14.237 20.635 14.1575 20.7942 14.1575H22.346C22.6643 14.1575 22.9269 14.054 23.1338 13.8471C23.3407 13.6243 23.4442 13.3537 23.4442 13.0354V8.85742H26.882V13.0354C26.882 13.3537 26.9855 13.6243 27.1924 13.8471C27.3993 14.054 27.6619 14.1575 27.9803 14.1575H29.5321C29.6912 14.1575 29.7708 14.237 29.7708 14.3962V17.5237C29.7708 17.6829 29.6912 17.7624 29.5321 17.7624H27.9803C26.8025 17.7624 25.8634 17.3725 25.1631 16.5926C24.431 17.3725 23.4919 17.7624 22.346 17.7624H20.7942C20.635 17.7624 20.5554 17.6829 20.5554 17.5237V14.3962ZM21.4626 19.8156H24.5185V22.8715H21.4626V19.8156ZM25.76 19.8156H28.8397V22.8715H25.76V19.8156Z" fill="black"/>
<path d="M17.5766 17.7627C17.4175 17.7627 17.3379 17.6831 17.3379 17.524V14.3965C17.3379 14.2373 17.4175 14.1577 17.5766 14.1577H20.7996C20.9588 14.1577 21.0384 14.2373 21.0384 14.3965V17.524C21.0384 17.6831 20.9588 17.7627 20.7996 17.7627H17.5766Z" fill="black"/>
<path d="M7.68745 21.9639C6.30275 21.9639 5.02151 21.6137 3.84372 20.9134C2.66594 20.229 1.72689 19.2979 1.02658 18.1201C0.342195 16.9423 0 15.6611 0 14.2764V9.81196H3.43787V14.0854C3.43787 14.8494 3.62886 15.5576 4.01084 16.2102C4.39283 16.8628 4.9101 17.38 5.56266 17.762C6.21521 18.144 6.92348 18.335 7.68745 18.335C8.46734 18.335 9.18356 18.144 9.83611 17.762C10.5046 17.38 11.0298 16.8628 11.4118 16.2102C11.7938 15.5576 11.9848 14.8494 11.9848 14.0854V1.6709H15.3033V14.2764C15.3033 15.6611 14.9611 16.9423 14.2767 18.1201C13.6082 19.2979 12.693 20.229 11.5312 20.9134C10.3693 21.6137 9.08806 21.9639 7.68745 21.9639ZM16.5447 17.762C15.3669 17.762 14.5473 17.3641 14.0857 16.5683C13.64 15.7566 13.4172 14.6504 13.4172 13.2498V1.6709H15.4465V13.035C15.4465 13.3533 15.55 13.6238 15.7569 13.8467C15.9797 14.0536 16.2423 14.157 16.5447 14.157H17.5713C17.7305 14.157 17.8101 14.2366 17.8101 14.3958V17.5233C17.8101 17.6824 17.7305 17.762 17.5713 17.762H16.5447Z" fill="black"/>
</svg>
